<?xml version="1.0" encoding="UTF-8"?>
<svg id="Layer_2" data-name="Layer 2" xmlns="http://www.w3.org/2000/svg" xmlns:xlink="http://www.w3.org/1999/xlink" viewBox="0 0 1406.97 475.45">
  <defs>
    <style>
      .cls-1 {
        fill: url(#linear-gradient-8);
      }

      .cls-2 {
        fill: url(#linear-gradient-7);
      }

      .cls-3 {
        fill: url(#linear-gradient-5);
      }

      .cls-4 {
        fill: url(#linear-gradient-6);
      }

      .cls-5 {
        fill: url(#linear-gradient-9);
      }

      .cls-6 {
        fill: url(#linear-gradient-4);
      }

      .cls-7 {
        fill: url(#linear-gradient-3);
      }

      .cls-8 {
        fill: url(#linear-gradient-2);
      }

      .cls-9 {
        fill: url(#linear-gradient);
      }

      .cls-10 {
        fill: url(#linear-gradient-10);
      }

      .cls-11 {
        fill: url(#linear-gradient-11);
      }

      .cls-12 {
        fill: #fefefe;
      }

      .cls-13 {
        fill: #0ae8ff;
      }
    </style>
    <linearGradient id="linear-gradient" x1="114.95" y1="269.34" x2="114.95" y2="13.79" gradientUnits="userSpaceOnUse">
      <stop offset=".02" stop-color="#07faff"/>
      <stop offset=".23" stop-color="#08f3ff"/>
      <stop offset=".5" stop-color="#0be2ff"/>
      <stop offset=".82" stop-color="#11c6ff"/>
      <stop offset="1" stop-color="#15b3ff"/>
    </linearGradient>
    <linearGradient id="linear-gradient-2" x1="309.82" x2="309.82" xlink:href="#linear-gradient"/>
    <linearGradient id="linear-gradient-3" x1="489.9" x2="489.9" xlink:href="#linear-gradient"/>
    <linearGradient id="linear-gradient-4" x1="760.18" x2="760.18" xlink:href="#linear-gradient"/>
    <linearGradient id="linear-gradient-5" x1="946.05" x2="946.05" xlink:href="#linear-gradient"/>
    <linearGradient id="linear-gradient-6" x1="1131.78" x2="1131.78" xlink:href="#linear-gradient"/>
    <linearGradient id="linear-gradient-7" x1="1317.51" x2="1317.51" xlink:href="#linear-gradient"/>
    <linearGradient id="linear-gradient-8" x1="491.23" y1="463.63" x2="491.23" y2="304.64" gradientUnits="userSpaceOnUse">
      <stop offset="0" stop-color="#a6a6a6"/>
      <stop offset=".04" stop-color="#b9b9b9"/>
      <stop offset=".11" stop-color="#d2d2d2"/>
      <stop offset=".18" stop-color="#e6e6e6"/>
      <stop offset=".26" stop-color="#f4f4f4"/>
      <stop offset=".37" stop-color="#fcfcfc"/>
      <stop offset=".55" stop-color="#fff"/>
      <stop offset=".64" stop-color="#fafafa"/>
      <stop offset=".74" stop-color="#eee"/>
      <stop offset=".84" stop-color="#dadada"/>
      <stop offset=".93" stop-color="#bdbdbd"/>
      <stop offset="1" stop-color="#a6a6a6"/>
    </linearGradient>
    <linearGradient id="linear-gradient-9" x1="606.65" x2="606.65" xlink:href="#linear-gradient-8"/>
    <linearGradient id="linear-gradient-10" x1="726.49" x2="726.49" xlink:href="#linear-gradient-8"/>
    <linearGradient id="linear-gradient-11" x1="838.82" x2="838.82" xlink:href="#linear-gradient-8"/>
  </defs>
  <g id="Layer_1-2" data-name="Layer 1">
    <g>
      <g>
        <g>
          <path d="M63.52,283.12l10.05-215.77h-21.55l-2.37-3.05C36.34,47.11,23.05,29.91,9.78,12.69L0,0h216.18l-3.43,92.23h-69.24l-8.1,190.89H63.52Z"/>
          <path class="cls-12" d="M149.86,84.36c.41-9.95.62-14.93,1.03-24.88h-13.88c-3.05,71.92-6.1,143.85-9.15,215.77h-56.09c3.35-71.92,6.7-143.85,10.05-215.77h-25.94C42.57,42.29,29.28,25.09,16.02,7.88h191.99c-.95,25.49-1.9,50.98-2.85,76.48h-55.3Z"/>
          <path d="M328.81,283.12l2.91-108.04h-9.67s-13.21-14.44-18.67-20.43l-3.89,128.47h-71.89l8.1-235.35c-10.41-13.48-16.15-20.93-27.04-35.1l-9.74-12.68h207.92l-6.45,283.12h-71.58ZM333.54,107.74l1.61-59.91c-10.52-13.49-16.32-20.94-27.31-35.11l-.15-.2-2.88,95.23h28.74Z"/>
          <path class="cls-12" d="M243.67,45.21c-11.54-14.93-17.29-22.4-28.76-37.33h85.03c-.98,32.47-1.97,64.94-2.95,97.42-16.83,0-25.24,0-42.07,0,13.55,14.8,27.12,29.57,40.73,44.31-1.27,41.88-2.53,83.76-3.8,125.64h-56.09c2.64-76.68,5.28-153.36,7.92-230.04ZM341.2,115.61c.63-23.47,1.26-46.94,1.9-70.41-11.65-14.93-17.46-22.4-29.04-37.33h84.73c-2.03,89.12-4.06,178.24-6.09,267.37h-55.79c.97-36.01,1.94-72.03,2.91-108.04h-14.29c-15.71-17.17-31.38-34.36-47.02-51.59h62.7Z"/>
          <path d="M422.35,283.12l4.71-235.26c-10.62-13.5-16.47-20.95-27.57-35.13l-9.97-12.73h186.37l-.92,92.23h-70.79l.35-24.88h-6.87l-.62,38.87h81.21l-12.64,13.31c-16.5,17.37-33.06,34.74-49.21,51.61l-2.33,2.43h-18.11l-.67,42.21h7.13l.36-25.19h71.2l-.93,92.54h-150.71Z"/>
          <path class="cls-12" d="M567.17,84.36h-55c.14-9.95.21-14.93.35-24.88h-22.62c-.35,21.85-.52,32.78-.87,54.63h70.87c-16.36,17.23-32.76,34.43-49.19,51.59h-22.5c-.31,19.32-.61,38.64-.92,57.96h22.9c.14-10.08.21-15.11.36-25.19h55.47c-.26,25.59-.51,51.19-.77,76.78-44.96,0-89.91,0-134.87,0,1.53-76.68,3.07-153.36,4.6-230.04-11.75-14.93-17.61-22.4-29.3-37.33h162.24c-.26,25.49-.51,50.98-.77,76.48Z"/>
          <path d="M701.04,283.12c-3.23,0-6.52-1.12-9.78-3.33-2.45-1.66-4.74-3.67-6.8-5.96-2.03-2.26-3.76-4.69-5.16-7.22-1.79-3.24-2.66-6.18-2.66-8.98l.16-132.37,12.2,8.04c18.43,12.15,36.87,24.29,55.32,36.41l3.54,2.33.13,43.72h23.91l-.99-167.44c-11.12-13.66-17.23-21.17-28.83-35.5l-10.4-12.84h109.35l2.84,283.12h-142.83Z"/>
          <path class="cls-12" d="M833.23,7.88c.89,89.12,1.79,178.24,2.68,267.37h-134.87c-1.64,0-3.42-.66-5.36-1.97-1.94-1.32-3.73-2.89-5.36-4.71-1.63-1.82-3.01-3.75-4.13-5.76-1.12-2.03-1.68-3.75-1.68-5.16.05-39.25.09-78.5.14-117.75,18.43,12.15,36.88,24.29,55.33,36.42.06,18.94.08,28.41.14,47.34,15.88,0,23.82,0,39.69,0-.35-59.38-.7-118.76-1.05-178.14-12.26-15.05-18.37-22.58-30.57-37.63,28.34,0,56.69,0,85.03,0Z"/>
          <path d="M888.63,283.12c-3.22,0-6.51-1.11-9.78-3.31-2.47-1.66-4.78-3.66-6.86-5.94-2.04-2.24-3.81-4.66-5.24-7.18-1.83-3.22-2.74-6.15-2.78-8.94L860.7,0h140.18c3.21,0,6.49,1.12,9.74,3.34,2.43,1.65,4.71,3.65,6.77,5.93,2.03,2.25,3.78,4.65,5.21,7.16,1.82,3.21,2.74,6.11,2.8,8.87l6.17,257.83h-142.94ZM958.65,215.77l-2.94-148.43h-23.47l2.5,148.43h23.91Z"/>
          <path class="cls-12" d="M868.68,7.88h132.2c1.6,0,3.37.66,5.3,1.97,1.93,1.31,3.72,2.88,5.37,4.71,1.65,1.82,3.05,3.75,4.2,5.76,1.15,2.02,1.74,3.75,1.78,5.16,1.99,83.26,3.98,166.51,5.98,249.77-44.96,0-89.91,0-134.87,0-1.64,0-3.43-.66-5.39-1.97-1.96-1.32-3.77-2.89-5.43-4.71-1.66-1.82-3.06-3.75-4.21-5.76-1.15-2.03-1.73-3.75-1.75-5.16-1.06-83.26-2.12-166.51-3.18-249.77ZM926.99,223.65c15.88,0,23.82,0,39.69,0-1.08-54.73-2.17-109.45-3.25-164.18-15.68,0-23.53,0-39.21,0,.92,54.73,1.84,109.46,2.77,164.18Z"/>
          <path d="M1076.22,283.12c-3.21,0-6.5-1.11-9.78-3.29-2.48-1.65-4.8-3.64-6.91-5.91-2.07-2.24-3.86-4.65-5.32-7.16-1.87-3.21-2.81-6.12-2.88-8.91L1044.46,0h140.29c3.2,0,6.47,1.12,9.74,3.32,2.45,1.65,4.75,3.64,6.83,5.91,2.05,2.23,3.83,4.63,5.28,7.13,1.86,3.19,2.81,6.07,2.91,8.82l4.37,115.64-12.74-8.28c-18.82-12.23-37.62-24.47-56.42-36.73l-3.43-2.24-.88-26.22h-23.47l4.56,148.43h23.91l-2.09-62.21,12.69,8.26c18.9,12.35,37.81,24.69,56.74,37.02l3.42,2.23,3.1,82.05h-143.05Z"/>
          <path class="cls-12" d="M1184.75,7.88c1.6,0,3.38.66,5.33,1.97,1.95,1.31,3.76,2.88,5.43,4.71,1.67,1.82,3.1,3.75,4.28,5.76,1.18,2.02,1.8,3.75,1.85,5.16,1.27,33.48,2.53,66.97,3.8,100.45-18.81-12.23-37.61-24.47-56.41-36.72-.4-11.9-.6-17.84-1-29.74h-39.21c1.68,54.73,3.36,109.45,5.05,164.18h39.69c-.62-18.41-1.24-36.82-1.86-55.23,18.91,12.36,37.82,24.7,56.75,37.02.88,23.27,1.76,46.53,2.64,69.8h-134.87c-1.64,0-3.44-.66-5.42-1.97-1.98-1.32-3.81-2.89-5.49-4.71-1.68-1.82-3.12-3.75-4.29-5.76-1.18-2.03-1.78-3.75-1.82-5.16-2.21-83.26-4.43-166.51-6.65-249.77h132.2Z"/>
          <path d="M1263.8,283.12c-3.19,0-6.48-1.1-9.78-3.27-2.5-1.65-4.84-3.63-6.97-5.89-2.09-2.23-3.91-4.63-5.4-7.13-1.9-3.19-2.88-6.09-2.99-8.86L1228.22,0h140.4c3.18,0,6.46,1.11,9.74,3.3,2.46,1.64,4.77,3.62,6.88,5.88,2.09,2.24,3.89,4.63,5.37,7.11,1.89,3.17,2.88,6.04,3.02,8.78l13.34,258.05h-143.16ZM1332.17,215.77l-7.06-148.43h-23.46l6.62,148.43h23.9Z"/>
          <path class="cls-12" d="M1236.42,7.88h132.2c1.6,0,3.39.66,5.36,1.97,1.97,1.31,3.8,2.88,5.5,4.71,1.7,1.82,3.15,3.75,4.36,5.76,1.21,2.02,1.85,3.75,1.92,5.16,4.31,83.26,8.61,166.51,12.92,249.77-44.96,0-89.91,0-134.87,0-1.64,0-3.45-.66-5.45-1.97-2-1.32-3.85-2.89-5.56-4.71-1.71-1.82-3.17-3.75-4.37-5.76-1.21-2.03-1.83-3.75-1.89-5.16-3.37-83.25-6.74-166.51-10.12-249.77ZM1300.74,223.65c15.88,0,23.82,0,39.69,0-2.6-54.73-5.21-109.46-7.81-164.18h-39.21c2.44,54.73,4.89,109.45,7.33,164.18Z"/>
        </g>
        <g>
          <path class="cls-13" d="M149.86,84.36c.41-9.95.62-14.93,1.03-24.88h-13.88c-3.05,71.92-6.1,143.85-9.15,215.77h-56.09c3.35-71.92,6.7-143.85,10.05-215.77h-25.94C42.57,42.29,29.28,25.09,16.02,7.88h191.99c-.95,25.49-1.9,50.98-2.85,76.48h-55.3Z"/>
          <path class="cls-13" d="M243.67,45.21c-11.54-14.93-17.29-22.4-28.76-37.33h85.03c-.98,32.47-1.97,64.94-2.95,97.42-16.83,0-25.24,0-42.07,0,13.55,14.8,27.12,29.57,40.73,44.31-1.27,41.88-2.53,83.76-3.8,125.64h-56.09c2.64-76.68,5.28-153.36,7.92-230.04ZM341.2,115.61c.63-23.47,1.26-46.94,1.9-70.41-11.65-14.93-17.46-22.4-29.04-37.33h84.73c-2.03,89.12-4.06,178.24-6.09,267.37h-55.79c.97-36.01,1.94-72.03,2.91-108.04h-14.29c-15.71-17.17-31.38-34.36-47.02-51.59h62.7Z"/>
          <path class="cls-13" d="M567.17,84.36h-55c.14-9.95.21-14.93.35-24.88h-22.62c-.35,21.85-.52,32.78-.87,54.63h70.87c-16.36,17.23-32.76,34.43-49.19,51.59h-22.5c-.31,19.32-.61,38.64-.92,57.96h22.9c.14-10.08.21-15.11.36-25.19h55.47c-.26,25.59-.51,51.19-.77,76.78-44.96,0-89.91,0-134.87,0,1.53-76.68,3.07-153.36,4.6-230.04-11.75-14.93-17.61-22.4-29.3-37.33h162.24c-.26,25.49-.51,50.98-.77,76.48Z"/>
          <path class="cls-13" d="M833.23,7.88c.89,89.12,1.79,178.24,2.68,267.37h-134.87c-1.64,0-3.42-.66-5.36-1.97-1.94-1.32-3.73-2.89-5.36-4.71-1.63-1.82-3.01-3.75-4.13-5.76-1.12-2.03-1.68-3.75-1.68-5.16.05-39.25.09-78.5.14-117.75,18.43,12.15,36.88,24.29,55.33,36.42.06,18.94.08,28.41.14,47.34,15.88,0,23.82,0,39.69,0-.35-59.38-.7-118.76-1.05-178.14-12.26-15.05-18.37-22.58-30.57-37.63,28.34,0,56.69,0,85.03,0Z"/>
          <path class="cls-13" d="M868.68,7.88h132.2c1.6,0,3.37.66,5.3,1.97,1.93,1.31,3.72,2.88,5.37,4.71,1.65,1.82,3.05,3.75,4.2,5.76,1.15,2.02,1.74,3.75,1.78,5.16,1.99,83.26,3.98,166.51,5.98,249.77-44.96,0-89.91,0-134.87,0-1.64,0-3.43-.66-5.39-1.97-1.96-1.32-3.77-2.89-5.43-4.71-1.66-1.82-3.06-3.75-4.21-5.76-1.15-2.03-1.73-3.75-1.75-5.16-1.06-83.26-2.12-166.51-3.18-249.77ZM926.99,223.65c15.88,0,23.82,0,39.69,0-1.08-54.73-2.17-109.45-3.25-164.18-15.68,0-23.53,0-39.21,0,.92,54.73,1.84,109.46,2.77,164.18Z"/>
          <path class="cls-13" d="M1184.75,7.88c1.6,0,3.38.66,5.33,1.97,1.95,1.31,3.76,2.88,5.43,4.71,1.67,1.82,3.1,3.75,4.28,5.76,1.18,2.02,1.8,3.75,1.85,5.16,1.27,33.48,2.53,66.97,3.8,100.45-18.81-12.23-37.61-24.47-56.41-36.72-.4-11.9-.6-17.84-1-29.74h-39.21c1.68,54.73,3.36,109.45,5.05,164.18h39.69c-.62-18.41-1.24-36.82-1.86-55.23,18.91,12.36,37.82,24.7,56.75,37.02.88,23.27,1.76,46.53,2.64,69.8h-134.87c-1.64,0-3.44-.66-5.42-1.97-1.98-1.32-3.81-2.89-5.49-4.71-1.68-1.82-3.12-3.75-4.29-5.76-1.18-2.03-1.78-3.75-1.82-5.16-2.21-83.26-4.43-166.51-6.65-249.77h132.2Z"/>
          <path class="cls-13" d="M1236.42,7.88h132.2c1.6,0,3.39.66,5.36,1.97,1.97,1.31,3.8,2.88,5.5,4.71,1.7,1.82,3.15,3.75,4.36,5.76,1.21,2.02,1.85,3.75,1.92,5.16,4.31,83.26,8.61,166.51,12.92,249.77-44.96,0-89.91,0-134.87,0-1.64,0-3.45-.66-5.45-1.97-2-1.32-3.85-2.89-5.56-4.71-1.71-1.82-3.17-3.75-4.37-5.76-1.21-2.03-1.83-3.75-1.89-5.16-3.37-83.25-6.74-166.51-10.12-249.77ZM1300.74,223.65c15.88,0,23.82,0,39.69,0-2.6-54.73-5.21-109.46-7.81-164.18h-39.21c2.44,54.73,4.89,109.45,7.33,164.18Z"/>
        </g>
        <g>
          <path class="cls-13" d="M149.86,84.36c.41-9.95.62-14.93,1.03-24.88h-13.88c-3.05,71.92-6.1,143.85-9.15,215.77h-56.09c3.35-71.92,6.7-143.85,10.05-215.77h-25.94C42.57,42.29,29.28,25.09,16.02,7.88h191.99c-.95,25.49-1.9,50.98-2.85,76.48h-55.3Z"/>
          <path class="cls-9" d="M77.96,269.34l10.05-215.77h-29.23c-10.26-13.25-20.51-26.5-30.74-39.77h173.84l-2.41,64.66h-43.45l1.03-24.88h-25.7l-9.15,215.77h-44.24Z"/>
          <path class="cls-13" d="M243.67,45.21c-11.54-14.93-17.29-22.4-28.76-37.33h85.03c-.98,32.47-1.97,64.94-2.95,97.42-16.83,0-25.24,0-42.07,0,13.55,14.8,27.12,29.57,40.73,44.31-1.27,41.88-2.53,83.76-3.8,125.64h-56.09c2.64-76.68,5.28-153.36,7.92-230.04ZM341.2,115.61c.63-23.47,1.26-46.94,1.9-70.41-11.65-14.93-17.46-22.4-29.04-37.33h84.73c-2.03,89.12-4.06,178.24-6.09,267.37h-55.79c.97-36.01,1.94-72.03,2.91-108.04h-14.29c-15.71-17.17-31.38-34.36-47.02-51.59h62.7Z"/>
          <path class="cls-8" d="M342.98,269.34l2.91-108.04h-17.76c-11.99-13.11-24.15-26.44-36.27-39.77h55.1l2.11-78.28-1.31-1.67c-8.89-11.4-14.38-18.44-21.63-27.78h66.62l-5.82,255.55h-43.94ZM241.87,269.34l5.62-163.4,3.07,3.35c13.01,14.21,26.04,28.39,39.11,42.55l-3.56,117.5h-44.24ZM247.72,99.39l1.93-56.11-1.3-1.69c-8.81-11.41-14.25-18.45-21.44-27.81h66.94l-2.59,85.6h-43.54Z"/>
          <path class="cls-13" d="M567.17,84.36h-55c.14-9.95.21-14.93.35-24.88h-22.62c-.35,21.85-.52,32.78-.87,54.63h70.87c-16.36,17.23-32.76,34.43-49.19,51.59h-22.5c-.31,19.32-.61,38.64-.92,57.96h22.9c.14-10.08.21-15.11.36-25.19h55.47c-.26,25.59-.51,51.19-.77,76.78-44.96,0-89.91,0-134.87,0,1.53-76.68,3.07-153.36,4.6-230.04-11.75-14.93-17.61-22.4-29.3-37.33h162.24c-.26,25.49-.51,50.98-.77,76.48Z"/>
          <path class="cls-7" d="M436.42,269.34l4.52-226.12-1.31-1.66c-8.97-11.39-14.5-18.43-21.81-27.76h144.14l-.65,64.66h-43.15l.35-24.88h-34.43l-1.05,66.45h63.1c-12.73,13.39-25.45,26.72-37.94,39.77h-25.79l-1.1,69.78h34.73l.36-25.19h43.68l-.65,64.96h-122.99Z"/>
          <path class="cls-13" d="M833.23,7.88c.89,89.12,1.79,178.24,2.68,267.37h-134.87c-1.64,0-3.42-.66-5.36-1.97-1.94-1.32-3.73-2.89-5.36-4.71-1.63-1.82-3.01-3.75-4.13-5.76-1.12-2.03-1.68-3.75-1.68-5.16.05-39.25.09-78.5.14-117.75,18.43,12.15,36.88,24.29,55.33,36.42.06,18.94.08,28.41.14,47.34,15.88,0,23.82,0,39.69,0-.35-59.38-.7-118.76-1.05-178.14-12.26-15.05-18.37-22.58-30.57-37.63,28.34,0,56.69,0,85.03,0Z"/>
          <path class="cls-6" d="M701.04,269.34s-.65-.01-2.05-.96c-1.53-1.03-2.96-2.3-4.28-3.76-1.33-1.48-2.46-3.06-3.36-4.68-.89-1.61-.94-2.3-.94-2.31l.13-106.78c14.51,9.56,29.02,19.11,43.54,28.65l.15,50.06h51.53l-1.1-186.17-1.32-1.61c-9.35-11.48-15.13-18.58-22.75-27.99h66.78l2.56,255.55h-128.9Z"/>
          <path class="cls-13" d="M868.68,7.88h132.2c1.6,0,3.37.66,5.3,1.97,1.93,1.31,3.72,2.88,5.37,4.71,1.65,1.82,3.05,3.75,4.2,5.76,1.15,2.02,1.74,3.75,1.78,5.16,1.99,83.26,3.98,166.51,5.98,249.77-44.96,0-89.91,0-134.87,0-1.64,0-3.43-.66-5.39-1.97-1.96-1.32-3.77-2.89-5.43-4.71-1.66-1.82-3.06-3.75-4.21-5.76-1.15-2.03-1.73-3.75-1.75-5.16-1.06-83.26-2.12-166.51-3.18-249.77ZM926.99,223.65c15.88,0,23.82,0,39.69,0-1.08-54.73-2.17-109.45-3.25-164.18-15.68,0-23.53,0-39.21,0,.92,54.73,1.84,109.46,2.77,164.18Z"/>
          <path class="cls-3" d="M888.63,269.34s-.67-.01-2.1-.97c-1.55-1.04-3.01-2.31-4.35-3.78-1.36-1.49-2.51-3.07-3.44-4.7-.92-1.63-.98-2.33-.98-2.34l-3.1-243.76h126.21c.17,0,.84.17,1.98.95,1.53,1.04,2.99,2.32,4.32,3.79,1.35,1.49,2.51,3.08,3.44,4.72.95,1.66,1.01,2.38,1.01,2.39l5.83,243.71h-128.82ZM921.18,229.56h51.53l-3.48-176h-51.01l2.96,176Z"/>
          <path class="cls-13" d="M1184.75,7.88c1.6,0,3.38.66,5.33,1.97,1.95,1.31,3.76,2.88,5.43,4.71,1.67,1.82,3.1,3.75,4.28,5.76,1.18,2.02,1.8,3.75,1.85,5.16,1.27,33.48,2.53,66.97,3.8,100.45-18.81-12.23-37.61-24.47-56.41-36.72-.4-11.9-.6-17.84-1-29.74h-39.21c1.68,54.73,3.36,109.45,5.05,164.18h39.69c-.62-18.41-1.24-36.82-1.86-55.23,18.91,12.36,37.82,24.7,56.75,37.02.88,23.27,1.76,46.53,2.64,69.8h-134.87c-1.64,0-3.44-.66-5.42-1.97-1.98-1.32-3.81-2.89-5.49-4.71-1.68-1.82-3.12-3.75-4.29-5.76-1.18-2.03-1.78-3.75-1.82-5.16-2.21-83.26-4.43-166.51-6.65-249.77h132.2Z"/>
          <path class="cls-4" d="M1076.22,269.34s-.68-.01-2.14-.98c-1.57-1.04-3.06-2.32-4.43-3.8-1.38-1.49-2.56-3.08-3.52-4.72-.95-1.64-1.02-2.35-1.02-2.36l-6.48-243.69h126.13c.17,0,.86.18,2.03.96,1.56,1.05,3.03,2.33,4.39,3.8,1.38,1.5,2.56,3.1,3.52,4.74.98,1.69,1.05,2.42,1.05,2.42l3.37,89.05c-14.76-9.6-29.52-19.21-44.27-28.83l-1.09-32.38h-51.02l5.41,176h51.54l-1.68-49.97c14.88,9.72,29.77,19.43,44.67,29.14l2.29,60.61h-128.73Z"/>
          <path class="cls-13" d="M1236.42,7.88h132.2c1.6,0,3.39.66,5.36,1.97,1.97,1.31,3.8,2.88,5.5,4.71,1.7,1.82,3.15,3.75,4.36,5.76,1.21,2.02,1.85,3.75,1.92,5.16,4.31,83.26,8.61,166.51,12.92,249.77-44.96,0-89.91,0-134.87,0-1.64,0-3.45-.66-5.45-1.97-2-1.32-3.85-2.89-5.56-4.71-1.71-1.82-3.17-3.75-4.37-5.76-1.21-2.03-1.83-3.75-1.89-5.16-3.37-83.25-6.74-166.51-10.12-249.77ZM1300.74,223.65c15.88,0,23.82,0,39.69,0-2.6-54.73-5.21-109.46-7.81-164.18h-39.21c2.44,54.73,4.89,109.45,7.33,164.18Z"/>
          <path class="cls-2" d="M1263.8,269.34s-.7-.01-2.19-1c-1.6-1.05-3.11-2.34-4.5-3.81-1.41-1.5-2.62-3.1-3.6-4.74-.99-1.67-1.07-2.39-1.07-2.4l-9.87-243.6h126.04c.17,0,.88.18,2.08.98,1.57,1.05,3.08,2.34,4.46,3.82,1.41,1.51,2.62,3.11,3.6,4.76,1.02,1.71,1.1,2.45,1.1,2.45l12.6,243.54h-128.65ZM1295.08,229.56h51.54l-8.38-176h-51.02l7.86,176Z"/>
        </g>
      </g>
      <g>
        <g>
          <g>
            <path d="M438.52,475.45l3.84-148.83c-6.17-7.9-9.78-12.53-16.42-21.09l-9.87-12.71h120.17c2.64,0,5.25.89,7.77,2.65,1.7,1.19,3.28,2.61,4.69,4.24,1.36,1.57,2.53,3.27,3.48,5.06,1.32,2.49,1.94,4.79,1.91,7.03l-1.28,89.93-3.43,2.3c-15.88,10.64-31.78,21.26-47.71,31.84l-8.12,5.4-3.29-8.36-.92,42.54h-50.8ZM491.37,380.71c3.63-2.45,7.12-4.81,11.45-7.73l.59-32.2h-11.18l-.86,39.93Z"/>
            <path class="cls-12" d="M510.63,377.22c.33-17.73.49-26.59.82-44.32h-26.92c-.44,20.3-.66,30.46-1.1,50.76-3.4,3.18-5.11,4.77-8.51,7.96,3.15,8.11,4.73,12.16,7.9,20.27-.4,18.56-.8,37.12-1.21,55.69-14,0-21,0-35.01,0,1.23-47.86,2.47-95.71,3.7-143.57-7.28-9.32-10.91-13.98-18.15-23.3,34.69,0,69.38,0,104.07,0,1,0,2.09.41,3.26,1.23,1.17.82,2.26,1.8,3.24,2.94.98,1.14,1.81,2.34,2.48,3.6.67,1.26,1,2.34.99,3.22-.41,28.6-.81,57.2-1.22,85.8-15.87,10.64-31.77,21.25-47.68,31.82-5.37-13.64-8.04-20.46-13.36-34.09,10.7-7.2,16.04-10.8,26.69-18Z"/>
            <path d="M620.14,475.45l-4-20.28c-6.33-6.89-11.26-12.28-16.1-17.57-2,11.16-3.34,18.56-5.66,31.38l-1.17,6.48h-53.94l1.74-9.32c10.31-55.36,20.6-111.49,30.59-166.82l1.17-6.48h70.07l1.1,6.58c9.23,55.34,18.76,111.47,28.32,166.82l1.59,9.22h-53.71ZM609.14,403.43c-.58-3.79-1.16-7.58-1.74-11.37-.62,3.79-1.25,7.58-1.87,11.37h3.61Z"/>
            <path class="cls-12" d="M579.35,300.7c18.94,0,37.88,0,56.82,0,9.28,55.65,18.72,111.27,28.32,166.87-15.15,0-22.73,0-37.88,0-1.27-6.44-1.91-9.66-3.17-16.1-14.74-16.06-22.07-24.09-36.67-40.16,12.62,0,18.93,0,31.54,0-3.23-21.08-6.45-42.17-9.65-63.26-.52-1.89-.77-2.84-1.29-4.74-3.34,20.59-6.71,41.17-10.11,61.75h-25.44c8.63,9.85,12.95,14.77,21.63,24.62-2.72,15.15-4.08,22.73-6.82,37.88-15.15,0-22.73,0-37.88,0,10.36-55.59,20.56-111.22,30.6-166.87Z"/>
            <path d="M689.74,475.45c-2.62,0-5.24-.87-7.77-2.59-1.72-1.16-3.33-2.57-4.78-4.18-1.42-1.57-2.63-3.27-3.62-5.05-1.38-2.47-2.05-4.77-2.05-7.04l-.3-163.77h90.4c2.61,0,5.22.88,7.75,2.61,1.73,1.18,3.32,2.59,4.75,4.19,1.39,1.56,2.6,3.25,3.58,5.01,1.36,2.45,2.04,4.72,2.07,6.95l1.01,77.55-12.41-8.18c-13.9-9.17-20.83-13.76-34.65-22.93l-3.48-2.31-.13-14.94h-8.74l.52,86.71h8.99l-.37-41.38,12.37,8.23c13.89,9.24,20.86,13.86,34.82,23.09l3.48,2.3.73,55.72h-92.15Z"/>
            <path class="cls-12" d="M761.61,300.7c1,0,2.1.41,3.29,1.23,1.2.82,2.31,1.8,3.32,2.94,1.01,1.13,1.87,2.34,2.58,3.6s1.06,2.34,1.08,3.22c.27,20.9.55,41.8.82,62.69-13.89-9.17-20.82-13.75-34.63-22.92-.07-7.42-.1-11.14-.17-18.56h-24.47c.2,34.16.41,68.31.61,102.47,9.91,0,14.87,0,24.78,0-.12-13.79-.18-20.68-.31-34.47,13.9,9.24,20.87,13.86,34.84,23.11.23,17.43.34,26.14.57,43.56-28.06,0-56.11,0-84.17,0-1.02,0-2.14-.41-3.35-1.23-1.21-.82-2.33-1.8-3.36-2.94-1.02-1.14-1.88-2.34-2.59-3.6-.7-1.26-1.06-2.34-1.06-3.22-.09-51.96-.19-103.92-.28-155.88,27.5,0,55,0,82.51,0Z"/>
            <path d="M814.01,475.45l-2.52-134.67h-12.12l-2.36-2.81c-10.84-12.89-16.24-19.33-27-32.22l-10.79-12.93h144.32l1.79,63.49h-43.23l2.73,119.14h-50.8Z"/>
            <path class="cls-12" d="M862.7,348.43c-.15-6.21-.22-9.32-.37-15.53h-8.66c1.03,44.89,2.05,89.78,3.08,134.67-14,0-21,0-35.01,0-.84-44.89-1.68-89.78-2.52-134.67h-16.19c-10.83-12.88-16.23-19.32-26.98-32.2,39.94,0,79.88,0,119.82,0,.54,19.09.8,28.64,1.34,47.73h-34.51Z"/>
          </g>
          <g>
            <path class="cls-12" d="M510.63,377.22c.33-17.73.49-26.59.82-44.32h-26.92c-.44,20.3-.66,30.46-1.1,50.76-3.4,3.18-5.11,4.77-8.51,7.96,3.15,8.11,4.73,12.16,7.9,20.27-.4,18.56-.8,37.12-1.21,55.69-14,0-21,0-35.01,0,1.23-47.86,2.47-95.71,3.7-143.57-7.28-9.32-10.91-13.98-18.15-23.3,34.69,0,69.38,0,104.07,0,1,0,2.09.41,3.26,1.23,1.17.82,2.26,1.8,3.24,2.94.98,1.14,1.81,2.34,2.48,3.6.67,1.26,1,2.34.99,3.22-.41,28.6-.81,57.2-1.22,85.8-15.87,10.64-31.77,21.25-47.68,31.82-5.37-13.64-8.04-20.46-13.36-34.09,10.7-7.2,16.04-10.8,26.69-18Z"/>
            <path class="cls-12" d="M579.35,300.7c18.94,0,37.88,0,56.82,0,9.28,55.65,18.72,111.27,28.32,166.87-15.15,0-22.73,0-37.88,0-1.27-6.44-1.91-9.66-3.17-16.1-14.74-16.06-22.07-24.09-36.67-40.16,12.62,0,18.93,0,31.54,0-3.23-21.08-6.45-42.17-9.65-63.26-.52-1.89-.77-2.84-1.29-4.74-3.34,20.59-6.71,41.17-10.11,61.75h-25.44c8.63,9.85,12.95,14.77,21.63,24.62-2.72,15.15-4.08,22.73-6.82,37.88-15.15,0-22.73,0-37.88,0,10.36-55.59,20.56-111.22,30.6-166.87Z"/>
            <path class="cls-12" d="M761.61,300.7c1,0,2.1.41,3.29,1.23,1.2.82,2.31,1.8,3.32,2.94,1.01,1.13,1.87,2.34,2.58,3.6s1.06,2.34,1.08,3.22c.27,20.9.55,41.8.82,62.69-13.89-9.17-20.82-13.75-34.63-22.92-.07-7.42-.1-11.14-.17-18.56h-24.47c.2,34.16.41,68.31.61,102.47,9.91,0,14.87,0,24.78,0-.12-13.79-.18-20.68-.31-34.47,13.9,9.24,20.87,13.86,34.84,23.11.23,17.43.34,26.14.57,43.56-28.06,0-56.11,0-84.17,0-1.02,0-2.14-.41-3.35-1.23-1.21-.82-2.33-1.8-3.36-2.94-1.02-1.14-1.88-2.34-2.59-3.6-.7-1.26-1.06-2.34-1.06-3.22-.09-51.96-.19-103.92-.28-155.88,27.5,0,55,0,82.51,0Z"/>
            <path class="cls-12" d="M862.7,348.43c-.15-6.21-.22-9.32-.37-15.53h-8.66c1.03,44.89,2.05,89.78,3.08,134.67-14,0-21,0-35.01,0-.84-44.89-1.68-89.78-2.52-134.67h-16.19c-10.83-12.88-16.23-19.32-26.98-32.2,39.94,0,79.88,0,119.82,0,.54,19.09.8,28.64,1.34,47.73h-34.51Z"/>
          </g>
        </g>
        <g>
          <path class="cls-12" d="M510.63,377.22c.33-17.73.49-26.59.82-44.32h-26.92c-.44,20.3-.66,30.46-1.1,50.76-3.4,3.18-5.11,4.77-8.51,7.96,3.15,8.11,4.73,12.16,7.9,20.27-.4,18.56-.8,37.12-1.21,55.69-14,0-21,0-35.01,0,1.23-47.86,2.47-95.71,3.7-143.57-7.28-9.32-10.91-13.98-18.15-23.3,34.69,0,69.38,0,104.07,0,1,0,2.09.41,3.26,1.23,1.17.82,2.26,1.8,3.24,2.94.98,1.14,1.81,2.34,2.48,3.6.67,1.26,1,2.34.99,3.22-.41,28.6-.81,57.2-1.22,85.8-15.87,10.64-31.77,21.25-47.68,31.82-5.37-13.64-8.04-20.46-13.36-34.09,10.7-7.2,16.04-10.8,26.69-18Z"/>
          <path class="cls-1" d="M450.64,463.63l3.64-140.94-.87-1.11c-5.43-6.95-8.83-11.3-13.2-16.93h96.02s.31.04,1.01.52c.9.63,1.75,1.4,2.52,2.28.78.9,1.44,1.86,1.98,2.87.49.93.53,1.33.53,1.34l-1.19,83.71c-13.95,9.34-27.91,18.67-41.89,27.97-3.88-9.88-6.42-16.35-10.42-26.61,9.03-6.08,14.33-9.65,24.08-16.24l1.7-1.15.93-50.38h-34.79l-1.15,52.95-9.25,8.64.97,2.49c3.06,7.86,4.64,11.91,7.62,19.54l-1.11,51.04h-27.11Z"/>
          <path class="cls-12" d="M579.35,300.7c18.94,0,37.88,0,56.82,0,9.28,55.65,18.72,111.27,28.32,166.87-15.15,0-22.73,0-37.88,0-1.27-6.44-1.91-9.66-3.17-16.1-14.74-16.06-22.07-24.09-36.67-40.16,12.62,0,18.93,0,31.54,0-3.23-21.08-6.45-42.17-9.65-63.26-.52-1.89-.77-2.84-1.29-4.74-3.34,20.59-6.71,41.17-10.11,61.75h-25.44c8.63,9.85,12.95,14.77,21.63,24.62-2.72,15.15-4.08,22.73-6.82,37.88-15.15,0-22.73,0-37.88,0,10.36-55.59,20.56-111.22,30.6-166.87Z"/>
          <path class="cls-5" d="M629.85,463.63l-2.76-14.01-.75-.82c-12.58-13.71-19.76-21.56-30.67-33.55h27.23l-.7-4.54c-3.23-21.08-6.45-42.16-9.65-63.25l-.03-.23-1.35-4.95-7.69.4c-3.16,19.48-6.35,38.96-9.56,58.44h-28.86c5.92-32.21,11.8-64.48,17.58-96.49h50.19c8.81,52.76,17.88,106.2,26.98,158.99h-29.96ZM553.5,463.63c3.75-20.16,7.5-40.41,11.23-60.69l4.13,4.72c8.2,9.37,12.52,14.28,20.38,23.2-2.31,12.86-3.64,20.29-5.9,32.77h-29.84Z"/>
          <path class="cls-12" d="M761.61,300.7c1,0,2.1.41,3.29,1.23,1.2.82,2.31,1.8,3.32,2.94,1.01,1.13,1.87,2.34,2.58,3.6s1.06,2.34,1.08,3.22c.27,20.9.55,41.8.82,62.69-13.89-9.17-20.82-13.75-34.63-22.92-.07-7.42-.1-11.14-.17-18.56h-24.47c.2,34.16.41,68.31.61,102.47,9.91,0,14.87,0,24.78,0-.12-13.79-.18-20.68-.31-34.47,13.9,9.24,20.87,13.86,34.84,23.11.23,17.43.34,26.14.57,43.56-28.06,0-56.11,0-84.17,0-1.02,0-2.14-.41-3.35-1.23-1.21-.82-2.33-1.8-3.36-2.94-1.02-1.14-1.88-2.34-2.59-3.6-.7-1.26-1.06-2.34-1.06-3.22-.09-51.96-.19-103.92-.28-155.88,27.5,0,55,0,82.51,0Z"/>
          <path class="cls-10" d="M689.74,463.63c-.1,0-.49-.11-1.14-.55-.94-.64-1.83-1.41-2.64-2.31-.81-.9-1.51-1.87-2.07-2.88-.52-.93-.56-1.33-.56-1.34l-.28-151.91h78.56s.33.04,1.07.54c.94.64,1.81,1.42,2.6,2.31.82.92,1.52,1.89,2.08,2.89.53.96.58,1.38.58,1.38l.72,55.23c-9.57-6.32-16.13-10.66-26.68-17.66l-.18-20.38h-32.34l.66,110.35h32.67l-.28-31.02c9.61,6.39,16.22,10.77,26.92,17.85l.49,37.49h-80.18Z"/>
          <path class="cls-12" d="M862.7,348.43c-.15-6.21-.22-9.32-.37-15.53h-8.66c1.03,44.89,2.05,89.78,3.08,134.67-14,0-21,0-35.01,0-.84-44.89-1.68-89.78-2.52-134.67h-16.19c-10.83-12.88-16.23-19.32-26.98-32.2,39.94,0,79.88,0,119.82,0,.54,19.09.8,28.64,1.34,47.73h-34.51Z"/>
          <path class="cls-11" d="M825.61,463.63l-2.52-134.67h-18.22c-8.16-9.7-13.24-15.76-20.39-24.32h107.57l1.12,39.85h-26.61l-.37-15.53h-16.54l3.08,134.67h-27.11Z"/>
        </g>
      </g>
    </g>
  </g>
</svg>