<?xml version="1.0" encoding="UTF-8"?>
<svg id="Layer_2" data-name="Layer 2" xmlns="http://www.w3.org/2000/svg" xmlns:xlink="http://www.w3.org/1999/xlink" viewBox="0 0 1421.21 480.26">
  <defs>
    <style>
      .cls-1 {
        fill: url(#Gradients_2);
      }

      .cls-2 {
        fill: url(#linear-gradient-4);
      }

      .cls-3 {
        fill: url(#linear-gradient-3);
      }

      .cls-4 {
        fill: url(#linear-gradient-2);
      }

      .cls-5 {
        fill: url(#linear-gradient);
      }

      .cls-6 {
        fill: #fff;
      }

      .cls-7 {
        fill: #fefefe;
      }

      .cls-8 {
        fill: #0ae8ff;
      }

      .cls-9 {
        fill: url(#Gradients_2-3);
      }

      .cls-10 {
        fill: url(#Gradients_2-5);
      }

      .cls-11 {
        fill: url(#Gradients_2-4);
      }

      .cls-12 {
        fill: url(#Gradients_2-7);
      }

      .cls-13 {
        fill: url(#Gradients_2-6);
      }

      .cls-14 {
        fill: url(#Gradients_2-2);
      }
    </style>
    <linearGradient id="Gradients_2" data-name="Gradients 2" x1="116.12" y1="272.06" x2="116.12" y2="13.93" gradientUnits="userSpaceOnUse">
      <stop offset="0" stop-color="#a6a6a6"/>
      <stop offset=".04" stop-color="#b9b9b9"/>
      <stop offset=".11" stop-color="#d2d2d2"/>
      <stop offset=".18" stop-color="#e6e6e6"/>
      <stop offset=".26" stop-color="#f4f4f4"/>
      <stop offset=".37" stop-color="#fcfcfc"/>
      <stop offset=".55" stop-color="#fff"/>
      <stop offset=".64" stop-color="#fafafa"/>
      <stop offset=".74" stop-color="#eee"/>
      <stop offset=".84" stop-color="#dadada"/>
      <stop offset=".93" stop-color="#bdbdbd"/>
      <stop offset="1" stop-color="#a6a6a6"/>
    </linearGradient>
    <linearGradient id="Gradients_2-2" data-name="Gradients 2" x1="312.96" x2="312.96" xlink:href="#Gradients_2"/>
    <linearGradient id="Gradients_2-3" data-name="Gradients 2" x1="494.86" x2="494.86" xlink:href="#Gradients_2"/>
    <linearGradient id="Gradients_2-4" data-name="Gradients 2" x1="767.87" x2="767.87" xlink:href="#Gradients_2"/>
    <linearGradient id="Gradients_2-5" data-name="Gradients 2" x1="955.63" x2="955.63" xlink:href="#Gradients_2"/>
    <linearGradient id="Gradients_2-6" data-name="Gradients 2" x1="1143.24" x2="1143.24" xlink:href="#Gradients_2"/>
    <linearGradient id="Gradients_2-7" data-name="Gradients 2" x1="1330.85" x2="1330.85" xlink:href="#Gradients_2"/>
    <linearGradient id="linear-gradient" x1="496.2" y1="468.32" x2="496.2" y2="307.72" gradientUnits="userSpaceOnUse">
      <stop offset="0" stop-color="#a6a6a6"/>
      <stop offset=".04" stop-color="#b9b9b9"/>
      <stop offset=".11" stop-color="#d2d2d2"/>
      <stop offset=".18" stop-color="#e6e6e6"/>
      <stop offset=".26" stop-color="#f4f4f4"/>
      <stop offset=".37" stop-color="#fcfcfc"/>
      <stop offset=".55" stop-color="#fff"/>
      <stop offset=".64" stop-color="#fafafa"/>
      <stop offset=".74" stop-color="#eee"/>
      <stop offset=".84" stop-color="#dadada"/>
      <stop offset=".93" stop-color="#bdbdbd"/>
      <stop offset="1" stop-color="#a6a6a6"/>
    </linearGradient>
    <linearGradient id="linear-gradient-2" x1="612.8" x2="612.8" xlink:href="#linear-gradient"/>
    <linearGradient id="linear-gradient-3" x1="733.84" x2="733.84" xlink:href="#linear-gradient"/>
    <linearGradient id="linear-gradient-4" x1="847.31" x2="847.31" xlink:href="#linear-gradient"/>
  </defs>
  <g id="Layer_1-2" data-name="Layer 1">
    <g>
      <g>
        <g>
          <path d="M64.16,285.99l10.15-217.96h-21.76l-2.39-3.09C36.7,47.59,23.28,30.21,9.88,12.82L0,0h218.37l-3.47,93.17h-69.94l-8.18,192.82h-72.63Z"/>
          <path class="cls-7" d="M151.38,85.21c.42-10.05.62-15.08,1.04-25.14h-14.02c-3.08,72.65-6.16,145.31-9.24,217.96h-56.66c3.38-72.65,6.77-145.31,10.15-217.96h-26.2C43,42.72,29.58,25.35,16.18,7.96h193.93c-.96,25.75-1.92,51.5-2.87,77.25h-55.86Z"/>
          <path d="M332.14,285.99l2.94-109.13h-9.77s-13.34-14.59-18.86-20.64l-3.93,129.77h-72.62l8.18-237.73c-10.52-13.61-16.31-21.14-27.31-35.45l-9.84-12.81h210.03l-6.52,285.99h-72.3ZM336.91,108.83l1.63-60.52c-10.63-13.63-16.48-21.15-27.59-35.47l-.15-.2-2.91,96.19h29.03Z"/>
          <path class="cls-7" d="M246.14,45.66c-11.65-15.08-17.46-22.62-29.05-37.71h85.89c-.99,32.8-1.99,65.6-2.98,98.4-17,0-25.5,0-42.49,0,13.69,14.95,27.4,29.86,41.14,44.76-1.28,42.3-2.56,84.61-3.84,126.91h-56.66c2.67-77.46,5.33-154.91,8-232.37ZM344.66,116.79c.64-23.71,1.28-47.41,1.91-71.12-11.77-15.08-17.64-22.62-29.34-37.71h85.58c-2.05,90.02-4.1,180.05-6.16,270.07h-56.35c.98-36.38,1.96-72.75,2.94-109.13h-14.44c-15.87-17.34-31.7-34.71-47.49-52.11h63.33Z"/>
          <path d="M426.63,285.99l4.75-237.64c-10.73-13.63-16.64-21.16-27.85-35.49l-10.07-12.86h188.26l-.93,93.17h-71.51l.36-25.14h-6.94l-.62,39.26h82.04l-12.77,13.44c-16.67,17.55-33.39,35.09-49.71,52.14l-2.35,2.46h-18.29l-.67,42.63h7.2l.36-25.44h71.92l-.94,93.48h-152.23Z"/>
          <path class="cls-7" d="M572.91,85.21h-55.56c.14-10.05.21-15.08.36-25.14h-22.85c-.35,22.07-.52,33.11-.87,55.18h71.59c-16.53,17.4-33.09,34.77-49.69,52.11h-22.73c-.31,19.52-.62,39.03-.93,58.55h23.13c.14-10.18.22-15.27.36-25.44h56.03c-.26,25.85-.52,51.71-.78,77.56-45.41,0-90.82,0-136.23,0,1.55-77.46,3.1-154.91,4.65-232.37-11.87-15.08-17.79-22.62-29.59-37.71h163.88c-.26,25.75-.52,51.5-.77,77.25Z"/>
          <path d="M708.14,285.99c-3.26,0-6.59-1.13-9.88-3.36-2.48-1.68-4.79-3.71-6.87-6.02-2.05-2.28-3.8-4.73-5.21-7.29-1.81-3.27-2.69-6.24-2.69-9.07l.16-133.71,12.32,8.12c18.62,12.28,37.24,24.54,55.88,36.78l3.58,2.35.13,44.16h24.16l-1-169.14c-11.24-13.8-17.4-21.39-29.12-35.85l-10.51-12.97h110.46l2.87,285.99h-144.27Z"/>
          <path class="cls-7" d="M841.66,7.96c.9,90.02,1.81,180.05,2.71,270.07h-136.23c-1.65,0-3.46-.66-5.42-1.99-1.96-1.33-3.77-2.92-5.41-4.75-1.65-1.84-3.04-3.78-4.17-5.82-1.13-2.05-1.7-3.79-1.69-5.21.05-39.65.09-79.3.14-118.94,18.62,12.28,37.25,24.54,55.89,36.79.06,19.13.08,28.69.14,47.82,16.04,0,24.06,0,40.1,0-.35-59.98-.71-119.96-1.06-179.95-12.39-15.2-18.56-22.81-30.88-38.01,28.63,0,57.26,0,85.89,0Z"/>
          <path d="M897.62,285.99c-3.25,0-6.58-1.13-9.88-3.34-2.5-1.68-4.83-3.7-6.93-6-2.07-2.27-3.85-4.71-5.29-7.26-1.85-3.25-2.76-6.21-2.8-9.03L869.41,0h141.59c3.24,0,6.55,1.13,9.84,3.37,2.45,1.67,4.75,3.68,6.84,5.99,2.05,2.27,3.82,4.7,5.26,7.23,1.84,3.24,2.77,6.17,2.83,8.96l6.23,260.44h-144.38ZM968.36,217.96l-2.97-149.93h-23.71l2.53,149.93h24.15Z"/>
          <path class="cls-7" d="M877.47,7.96h133.53c1.62,0,3.4.66,5.36,1.99,1.95,1.33,3.76,2.91,5.42,4.75,1.66,1.84,3.08,3.78,4.24,5.82,1.16,2.04,1.76,3.79,1.8,5.21,2.01,84.1,4.02,168.2,6.04,252.29-45.41,0-90.82,0-136.23,0-1.65,0-3.47-.66-5.45-1.99-1.98-1.33-3.81-2.92-5.48-4.75-1.67-1.84-3.1-3.78-4.25-5.82-1.16-2.05-1.75-3.79-1.77-5.21-1.07-84.1-2.14-168.2-3.21-252.29ZM936.38,225.92c16.04,0,24.06,0,40.1,0-1.09-55.28-2.19-110.56-3.28-165.84-15.84,0-23.76,0-39.61,0,.93,55.28,1.86,110.56,2.79,165.84Z"/>
          <path d="M1087.11,285.99c-3.24,0-6.56-1.12-9.88-3.32-2.5-1.67-4.85-3.68-6.98-5.97-2.09-2.26-3.9-4.7-5.38-7.23-1.88-3.24-2.84-6.19-2.91-9L1055.04,0h141.71c3.23,0,6.54,1.13,9.84,3.35,2.47,1.67,4.79,3.67,6.9,5.97,2.07,2.26,3.87,4.68,5.34,7.2,1.88,3.22,2.84,6.13,2.94,8.91l4.42,116.81-12.87-8.36c-19.01-12.35-38-24.72-56.99-37.1l-3.47-2.26-.89-26.49h-23.7l4.61,149.93h24.15l-2.12-62.84,12.82,8.34c19.09,12.48,38.19,24.94,57.31,37.39l3.45,2.25,3.13,82.88h-144.5Z"/>
          <path class="cls-7" d="M1196.74,7.96c1.62,0,3.41.66,5.38,1.99,1.97,1.33,3.8,2.91,5.49,4.75,1.69,1.84,3.13,3.78,4.32,5.82,1.19,2.04,1.81,3.79,1.87,5.21,1.28,33.82,2.56,67.65,3.84,101.47-19-12.35-38-24.71-56.98-37.09-.4-12.02-.61-18.02-1.01-30.04h-39.61c1.7,55.28,3.4,110.56,5.1,165.84h40.1c-.63-18.6-1.25-37.19-1.88-55.79,19.1,12.48,38.2,24.95,57.32,37.4.89,23.5,1.78,47,2.67,70.51h-136.23c-1.65,0-3.48-.66-5.47-1.99-2-1.33-3.85-2.92-5.55-4.75-1.7-1.84-3.15-3.78-4.33-5.82-1.19-2.05-1.8-3.79-1.84-5.21-2.24-84.1-4.47-168.2-6.71-252.29h133.53Z"/>
          <path d="M1276.6,285.99c-3.23,0-6.55-1.11-9.88-3.3-2.52-1.67-4.89-3.67-7.04-5.95-2.11-2.25-3.95-4.67-5.45-7.2-1.92-3.22-2.91-6.15-3.02-8.95L1240.65,0h141.82c3.22,0,6.52,1.12,9.83,3.33,2.48,1.66,4.82,3.66,6.95,5.94,2.11,2.26,3.93,4.68,5.42,7.18,1.91,3.2,2.91,6.1,3.05,8.87l13.48,260.66h-144.61ZM1345.65,217.96l-7.13-149.93h-23.7l6.69,149.93h24.14Z"/>
          <path class="cls-7" d="M1248.94,7.96h133.53c1.62,0,3.42.66,5.41,1.99,1.99,1.33,3.84,2.91,5.56,4.75,1.71,1.84,3.18,3.78,4.4,5.82,1.22,2.04,1.87,3.79,1.94,5.21,4.35,84.1,8.7,168.2,13.05,252.29-45.41,0-90.82,0-136.23,0-1.65,0-3.49-.66-5.5-1.99-2.02-1.33-3.89-2.92-5.61-4.75-1.73-1.84-3.2-3.78-4.41-5.82-1.22-2.05-1.85-3.79-1.91-5.21-3.41-84.1-6.81-168.2-10.22-252.29ZM1313.9,225.92c16.04,0,24.06,0,40.1,0-2.63-55.28-5.26-110.56-7.89-165.84h-39.61c2.47,55.28,4.93,110.56,7.4,165.84Z"/>
        </g>
        <g>
          <path class="cls-8" d="M151.38,85.21c.42-10.05.62-15.08,1.04-25.14h-14.02c-3.08,72.65-6.16,145.31-9.24,217.96h-56.66c3.38-72.65,6.77-145.31,10.15-217.96h-26.2C43,42.72,29.58,25.35,16.18,7.96h193.93c-.96,25.75-1.92,51.5-2.87,77.25h-55.86Z"/>
          <path class="cls-8" d="M246.14,45.66c-11.65-15.08-17.46-22.62-29.05-37.71h85.89c-.99,32.8-1.99,65.6-2.98,98.4-17,0-25.5,0-42.49,0,13.69,14.95,27.4,29.86,41.14,44.76-1.28,42.3-2.56,84.61-3.84,126.91h-56.66c2.67-77.46,5.33-154.91,8-232.37ZM344.66,116.79c.64-23.71,1.28-47.41,1.91-71.12-11.77-15.08-17.64-22.62-29.34-37.71h85.58c-2.05,90.02-4.1,180.05-6.16,270.07h-56.35c.98-36.38,1.96-72.75,2.94-109.13h-14.44c-15.87-17.34-31.7-34.71-47.49-52.11h63.33Z"/>
          <path class="cls-8" d="M572.91,85.21h-55.56c.14-10.05.21-15.08.36-25.14h-22.85c-.35,22.07-.52,33.11-.87,55.18h71.59c-16.53,17.4-33.09,34.77-49.69,52.11h-22.73c-.31,19.52-.62,39.03-.93,58.55h23.13c.14-10.18.22-15.27.36-25.44h56.03c-.26,25.85-.52,51.71-.78,77.56-45.41,0-90.82,0-136.23,0,1.55-77.46,3.1-154.91,4.65-232.37-11.87-15.08-17.79-22.62-29.59-37.71h163.88c-.26,25.75-.52,51.5-.77,77.25Z"/>
          <path class="cls-8" d="M841.66,7.96c.9,90.02,1.81,180.05,2.71,270.07h-136.23c-1.65,0-3.46-.66-5.42-1.99-1.96-1.33-3.77-2.92-5.41-4.75-1.65-1.84-3.04-3.78-4.17-5.82-1.13-2.05-1.7-3.79-1.69-5.21.05-39.65.09-79.3.14-118.94,18.62,12.28,37.25,24.54,55.89,36.79.06,19.13.08,28.69.14,47.82,16.04,0,24.06,0,40.1,0-.35-59.98-.71-119.96-1.06-179.95-12.39-15.2-18.56-22.81-30.88-38.01,28.63,0,57.26,0,85.89,0Z"/>
          <path class="cls-8" d="M877.47,7.96h133.53c1.62,0,3.4.66,5.36,1.99,1.95,1.33,3.76,2.91,5.42,4.75,1.66,1.84,3.08,3.78,4.24,5.82,1.16,2.04,1.76,3.79,1.8,5.21,2.01,84.1,4.02,168.2,6.04,252.29-45.41,0-90.82,0-136.23,0-1.65,0-3.47-.66-5.45-1.99-1.98-1.33-3.81-2.92-5.48-4.75-1.67-1.84-3.1-3.78-4.25-5.82-1.16-2.05-1.75-3.79-1.77-5.21-1.07-84.1-2.14-168.2-3.21-252.29ZM936.38,225.92c16.04,0,24.06,0,40.1,0-1.09-55.28-2.19-110.56-3.28-165.84-15.84,0-23.76,0-39.61,0,.93,55.28,1.86,110.56,2.79,165.84Z"/>
          <path class="cls-8" d="M1196.74,7.96c1.62,0,3.41.66,5.38,1.99,1.97,1.33,3.8,2.91,5.49,4.75,1.69,1.84,3.13,3.78,4.32,5.82,1.19,2.04,1.81,3.79,1.87,5.21,1.28,33.82,2.56,67.65,3.84,101.47-19-12.35-38-24.71-56.98-37.09-.4-12.02-.61-18.02-1.01-30.04h-39.61c1.7,55.28,3.4,110.56,5.1,165.84h40.1c-.63-18.6-1.25-37.19-1.88-55.79,19.1,12.48,38.2,24.95,57.32,37.4.89,23.5,1.78,47,2.67,70.51h-136.23c-1.65,0-3.48-.66-5.47-1.99-2-1.33-3.85-2.92-5.55-4.75-1.7-1.84-3.15-3.78-4.33-5.82-1.19-2.05-1.8-3.79-1.84-5.21-2.24-84.1-4.47-168.2-6.71-252.29h133.53Z"/>
          <path class="cls-8" d="M1248.94,7.96h133.53c1.62,0,3.42.66,5.41,1.99,1.99,1.33,3.84,2.91,5.56,4.75,1.71,1.84,3.18,3.78,4.4,5.82,1.22,2.04,1.87,3.79,1.94,5.21,4.35,84.1,8.7,168.2,13.05,252.29-45.41,0-90.82,0-136.23,0-1.65,0-3.49-.66-5.5-1.99-2.02-1.33-3.89-2.92-5.61-4.75-1.73-1.84-3.2-3.78-4.41-5.82-1.22-2.05-1.85-3.79-1.91-5.21-3.41-84.1-6.81-168.2-10.22-252.29ZM1313.9,225.92c16.04,0,24.06,0,40.1,0-2.63-55.28-5.26-110.56-7.89-165.84h-39.61c2.47,55.28,4.93,110.56,7.4,165.84Z"/>
        </g>
        <g>
          <path class="cls-6" d="M151.38,85.21c.42-10.05.62-15.08,1.04-25.14h-14.02c-3.08,72.65-6.16,145.31-9.24,217.96h-56.66c3.38-72.65,6.77-145.31,10.15-217.96h-26.2C43,42.72,29.58,25.35,16.18,7.96h193.93c-.96,25.75-1.92,51.5-2.87,77.25h-55.86Z"/>
          <path class="cls-1" d="M78.75,272.06l10.15-217.96h-29.53c-10.37-13.38-20.71-26.77-31.05-40.18h175.6l-2.43,65.31h-43.89l1.04-25.14h-25.96l-9.24,217.96h-44.69Z"/>
          <path class="cls-6" d="M246.14,45.66c-11.65-15.08-17.46-22.62-29.05-37.71h85.89c-.99,32.8-1.99,65.6-2.98,98.4-17,0-25.5,0-42.49,0,13.69,14.95,27.4,29.86,41.14,44.76-1.28,42.3-2.56,84.61-3.84,126.91h-56.66c2.67-77.46,5.33-154.91,8-232.37ZM344.66,116.79c.64-23.71,1.28-47.41,1.91-71.12-11.77-15.08-17.64-22.62-29.34-37.71h85.58c-2.05,90.02-4.1,180.05-6.16,270.07h-56.35c.98-36.38,1.96-72.75,2.94-109.13h-14.44c-15.87-17.34-31.7-34.71-47.49-52.11h63.33Z"/>
          <path class="cls-14" d="M346.45,272.06l2.94-109.13h-17.94c-12.11-13.24-24.4-26.71-36.64-40.18h55.66l2.13-79.07-1.32-1.69c-8.98-11.51-14.53-18.63-21.85-28.07h67.29l-5.88,258.13h-44.38ZM244.32,272.06l5.68-165.05,3.1,3.38c13.14,14.35,26.31,28.68,39.5,42.98l-3.59,118.69h-44.69ZM250.23,100.39l1.95-56.67-1.32-1.7c-8.9-11.52-14.39-18.64-21.66-28.09h67.62l-2.62,86.46h-43.98Z"/>
          <path class="cls-6" d="M572.91,85.21h-55.56c.14-10.05.21-15.08.36-25.14h-22.85c-.35,22.07-.52,33.11-.87,55.18h71.59c-16.53,17.4-33.09,34.77-49.69,52.11h-22.73c-.31,19.52-.62,39.03-.93,58.55h23.13c.14-10.18.22-15.27.36-25.44h56.03c-.26,25.85-.52,51.71-.78,77.56-45.41,0-90.82,0-136.23,0,1.55-77.46,3.1-154.91,4.65-232.37-11.87-15.08-17.79-22.62-29.59-37.71h163.88c-.26,25.75-.52,51.5-.77,77.25Z"/>
          <path class="cls-9" d="M440.84,272.06l4.57-228.41-1.32-1.68c-9.06-11.5-14.65-18.62-22.03-28.05h145.6l-.65,65.31h-43.59l.35-25.14h-34.78l-1.06,67.12h63.74c-12.86,13.52-25.71,26.99-38.33,40.18h-26.05l-1.12,70.49h35.08l.36-25.44h44.12l-.66,65.62h-124.23Z"/>
          <path class="cls-6" d="M841.66,7.96c.9,90.02,1.81,180.05,2.71,270.07h-136.23c-1.65,0-3.46-.66-5.42-1.99-1.96-1.33-3.77-2.92-5.41-4.75-1.65-1.84-3.04-3.78-4.17-5.82-1.13-2.05-1.7-3.79-1.69-5.21.05-39.65.09-79.3.14-118.94,18.62,12.28,37.25,24.54,55.89,36.79.06,19.13.08,28.69.14,47.82,16.04,0,24.06,0,40.1,0-.35-59.98-.71-119.96-1.06-179.95-12.39-15.2-18.56-22.81-30.88-38.01,28.63,0,57.26,0,85.89,0Z"/>
          <path class="cls-11" d="M708.14,272.06s-.66-.01-2.07-.97c-1.54-1.04-2.99-2.32-4.32-3.8-1.34-1.5-2.48-3.09-3.39-4.73-.9-1.63-.95-2.33-.95-2.33l.13-107.86c14.65,9.65,29.31,19.3,43.98,28.94l.15,50.56h52.05l-1.11-188.06-1.33-1.63c-9.45-11.6-15.28-18.77-22.98-28.27h67.46l2.59,258.13h-130.2Z"/>
          <path class="cls-6" d="M877.47,7.96h133.53c1.62,0,3.4.66,5.36,1.99,1.95,1.33,3.76,2.91,5.42,4.75,1.66,1.84,3.08,3.78,4.24,5.82,1.16,2.04,1.76,3.79,1.8,5.21,2.01,84.1,4.02,168.2,6.04,252.29-45.41,0-90.82,0-136.23,0-1.65,0-3.47-.66-5.45-1.99-1.98-1.33-3.81-2.92-5.48-4.75-1.67-1.84-3.1-3.78-4.25-5.82-1.16-2.05-1.75-3.79-1.77-5.21-1.07-84.1-2.14-168.2-3.21-252.29ZM936.38,225.92c16.04,0,24.06,0,40.1,0-1.09-55.28-2.19-110.56-3.28-165.84-15.84,0-23.76,0-39.61,0,.93,55.28,1.86,110.56,2.79,165.84Z"/>
          <path class="cls-10" d="M897.62,272.06s-.68-.01-2.12-.98c-1.57-1.05-3.04-2.34-4.39-3.82-1.37-1.5-2.54-3.1-3.47-4.75-.93-1.64-.99-2.35-.99-2.36l-3.13-246.23h127.49c.17,0,.85.17,2,.96,1.55,1.05,3.02,2.34,4.36,3.83,1.36,1.51,2.53,3.11,3.47,4.76.96,1.68,1.02,2.41,1.02,2.41l5.89,246.17h-130.12ZM930.51,231.89h52.05l-3.52-177.78h-51.53l2.99,177.78Z"/>
          <path class="cls-6" d="M1196.74,7.96c1.62,0,3.41.66,5.38,1.99,1.97,1.33,3.8,2.91,5.49,4.75,1.69,1.84,3.13,3.78,4.32,5.82,1.19,2.04,1.81,3.79,1.87,5.21,1.28,33.82,2.56,67.65,3.84,101.47-19-12.35-38-24.71-56.98-37.09-.4-12.02-.61-18.02-1.01-30.04h-39.61c1.7,55.28,3.4,110.56,5.1,165.84h40.1c-.63-18.6-1.25-37.19-1.88-55.79,19.1,12.48,38.2,24.95,57.32,37.4.89,23.5,1.78,47,2.67,70.51h-136.23c-1.65,0-3.48-.66-5.47-1.99-2-1.33-3.85-2.92-5.55-4.75-1.7-1.84-3.15-3.78-4.33-5.82-1.19-2.05-1.8-3.79-1.84-5.21-2.24-84.1-4.47-168.2-6.71-252.29h133.53Z"/>
          <path class="cls-13" d="M1087.11,272.06s-.69-.01-2.17-.99c-1.59-1.06-3.09-2.35-4.47-3.84-1.4-1.51-2.59-3.11-3.55-4.77-.96-1.66-1.03-2.38-1.03-2.38l-6.55-246.15h127.4c.17,0,.87.18,2.05.97,1.57,1.06,3.06,2.35,4.43,3.84,1.39,1.52,2.59,3.13,3.56,4.79.99,1.7,1.06,2.44,1.06,2.45l3.4,89.95c-14.91-9.7-29.82-19.41-44.72-29.12l-1.1-32.71h-51.53l5.47,177.78h52.06l-1.7-50.48c15.03,9.82,30.07,19.63,45.12,29.43l2.32,61.22h-130.04Z"/>
          <path class="cls-6" d="M1248.94,7.96h133.53c1.62,0,3.42.66,5.41,1.99,1.99,1.33,3.84,2.91,5.56,4.75,1.71,1.84,3.18,3.78,4.4,5.82,1.22,2.04,1.87,3.79,1.94,5.21,4.35,84.1,8.7,168.2,13.05,252.29-45.41,0-90.82,0-136.23,0-1.65,0-3.49-.66-5.5-1.99-2.02-1.33-3.89-2.92-5.61-4.75-1.73-1.84-3.2-3.78-4.41-5.82-1.22-2.05-1.85-3.79-1.91-5.21-3.41-84.1-6.81-168.2-10.22-252.29ZM1313.9,225.92c16.04,0,24.06,0,40.1,0-2.63-55.28-5.26-110.56-7.89-165.84h-39.61c2.47,55.28,4.93,110.56,7.4,165.84Z"/>
          <path class="cls-12" d="M1276.6,272.06s-.71-.01-2.22-1.01c-1.61-1.06-3.14-2.36-4.54-3.85-1.43-1.52-2.65-3.13-3.64-4.79-1-1.68-1.08-2.41-1.08-2.42l-9.97-246.07h127.32c.17,0,.89.18,2.1.99,1.59,1.06,3.11,2.36,4.51,3.86,1.42,1.53,2.65,3.15,3.63,4.8,1.03,1.72,1.11,2.47,1.11,2.48l12.72,246.01h-129.95ZM1308.2,231.89h52.07l-8.46-177.78h-51.54l7.94,177.78Z"/>
        </g>
      </g>
      <g>
        <g>
          <g>
            <path d="M442.95,480.26l3.88-150.33c-6.24-7.98-9.88-12.66-16.59-21.3l-9.97-12.84h121.38c2.66,0,5.31.9,7.85,2.68,1.72,1.2,3.31,2.64,4.73,4.28,1.37,1.58,2.56,3.3,3.52,5.11,1.33,2.51,1.96,4.83,1.93,7.1l-1.29,90.84-3.47,2.32c-16.04,10.75-32.1,21.47-48.19,32.16l-8.2,5.45-3.32-8.45-.93,42.97h-51.32ZM496.34,384.57c3.67-2.47,7.2-4.85,11.57-7.81l.6-32.53h-11.3l-.87,40.34Z"/>
            <path class="cls-7" d="M515.8,381.04c.33-17.91.49-26.86.82-44.77h-27.19c-.44,20.51-.67,30.76-1.11,51.27-3.44,3.21-5.16,4.82-8.6,8.04,3.19,8.19,4.78,12.28,7.98,20.47-.41,18.75-.81,37.5-1.22,56.25-14.15,0-21.22,0-35.36,0,1.25-48.34,2.49-96.68,3.74-145.02-7.36-9.41-11.02-14.12-18.33-23.53,35.04,0,70.08,0,105.12,0,1.01,0,2.11.42,3.3,1.24,1.19.83,2.28,1.82,3.27,2.97.99,1.15,1.83,2.36,2.51,3.64.68,1.27,1.01,2.36,1,3.25-.41,28.89-.82,57.78-1.23,86.67-16.03,10.75-32.09,21.46-48.16,32.15-5.42-13.78-8.12-20.66-13.49-34.44,10.81-7.27,16.2-10.91,26.96-18.18Z"/>
            <path d="M626.42,480.26l-4.04-20.49c-6.39-6.96-11.38-12.41-16.26-17.75-2.02,11.27-3.37,18.74-5.71,31.7l-1.18,6.54h-54.49l1.75-9.42c10.42-55.92,20.81-112.62,30.9-168.51l1.18-6.55h70.78l1.11,6.65c9.32,55.9,18.95,112.6,28.6,168.51l1.61,9.31h-54.25ZM615.3,407.52c-.59-3.83-1.17-7.66-1.76-11.49-.63,3.83-1.26,7.66-1.89,11.49h3.65Z"/>
            <path class="cls-7" d="M585.22,303.75c19.13,0,38.26,0,57.39,0,9.38,56.21,18.91,112.4,28.61,168.56-15.3,0-22.96,0-38.26,0-1.29-6.51-1.93-9.76-3.21-16.26-14.89-16.22-22.3-24.34-37.04-40.56,12.75,0,19.12,0,31.86,0-3.27-21.3-6.51-42.6-9.75-63.9-.52-1.91-.78-2.87-1.3-4.78-3.38,20.79-6.78,41.59-10.21,62.37h-25.7c8.71,9.95,13.08,14.92,21.85,24.87-2.74,15.31-4.12,22.96-6.89,38.27-15.3,0-22.96,0-38.26,0,10.46-56.16,20.76-112.34,30.91-168.56Z"/>
            <path d="M696.73,480.26c-2.65,0-5.29-.88-7.85-2.61-1.73-1.17-3.36-2.59-4.83-4.22-1.43-1.59-2.66-3.3-3.66-5.1-1.39-2.49-2.07-4.82-2.07-7.11l-.3-165.43h91.31c2.64,0,5.27.89,7.83,2.64,1.74,1.19,3.36,2.62,4.8,4.23,1.41,1.58,2.63,3.28,3.62,5.06,1.38,2.48,2.06,4.77,2.09,7.02l1.02,78.34-12.54-8.26c-14.04-9.26-21.04-13.9-35-23.16l-3.52-2.34-.14-15.09h-8.83l.52,87.59h9.08l-.37-41.8,12.5,8.31c14.03,9.33,21.07,14,35.17,23.33l3.51,2.32.74,56.28h-93.08Z"/>
            <path class="cls-7" d="M769.32,303.75c1.01,0,2.12.42,3.33,1.24,1.21.83,2.33,1.82,3.35,2.97,1.02,1.15,1.89,2.36,2.6,3.64s1.07,2.36,1.09,3.25c.28,21.11.55,42.22.83,63.33-14.03-9.26-21.03-13.89-34.98-23.15-.07-7.5-.1-11.25-.17-18.75h-24.72c.21,34.5.41,69,.62,103.51,10.01,0,15.02,0,25.03,0-.12-13.93-.19-20.89-.31-34.82,14.04,9.34,21.08,14,35.19,23.34.23,17.6.34,26.4.57,44.01-28.34,0-56.68,0-85.02,0-1.03,0-2.16-.42-3.39-1.24-1.23-.83-2.36-1.82-3.39-2.97-1.03-1.15-1.9-2.36-2.61-3.64-.71-1.27-1.07-2.36-1.07-3.25-.1-52.49-.19-104.97-.29-157.46,27.78,0,55.56,0,83.34,0Z"/>
            <path d="M822.25,480.26l-2.55-136.03h-12.25l-2.39-2.84c-10.95-13.02-16.4-19.53-27.27-32.55l-10.9-13.06h145.78l1.8,64.13h-43.67l2.75,120.34h-51.32Z"/>
            <path class="cls-7" d="M871.43,351.96c-.15-6.28-.23-9.41-.38-15.69h-8.75c1.04,45.34,2.07,90.69,3.11,136.03-14.14,0-21.22,0-35.36,0-.85-45.34-1.7-90.69-2.55-136.03h-16.35c-10.94-13.01-16.39-19.52-27.25-32.53,40.34,0,80.69,0,121.03,0,.54,19.29.81,28.93,1.35,48.21h-34.86Z"/>
          </g>
          <g>
            <path class="cls-7" d="M515.8,381.04c.33-17.91.49-26.86.82-44.77h-27.19c-.44,20.51-.67,30.76-1.11,51.27-3.44,3.21-5.16,4.82-8.6,8.04,3.19,8.19,4.78,12.28,7.98,20.47-.41,18.75-.81,37.5-1.22,56.25-14.15,0-21.22,0-35.36,0,1.25-48.34,2.49-96.68,3.74-145.02-7.36-9.41-11.02-14.12-18.33-23.53,35.04,0,70.08,0,105.12,0,1.01,0,2.11.42,3.3,1.24,1.19.83,2.28,1.82,3.27,2.97.99,1.15,1.83,2.36,2.51,3.64.68,1.27,1.01,2.36,1,3.25-.41,28.89-.82,57.78-1.23,86.67-16.03,10.75-32.09,21.46-48.16,32.15-5.42-13.78-8.12-20.66-13.49-34.44,10.81-7.27,16.2-10.91,26.96-18.18Z"/>
            <path class="cls-7" d="M585.22,303.75c19.13,0,38.26,0,57.39,0,9.38,56.21,18.91,112.4,28.61,168.56-15.3,0-22.96,0-38.26,0-1.29-6.51-1.93-9.76-3.21-16.26-14.89-16.22-22.3-24.34-37.04-40.56,12.75,0,19.12,0,31.86,0-3.27-21.3-6.51-42.6-9.75-63.9-.52-1.91-.78-2.87-1.3-4.78-3.38,20.79-6.78,41.59-10.21,62.37h-25.7c8.71,9.95,13.08,14.92,21.85,24.87-2.74,15.31-4.12,22.96-6.89,38.27-15.3,0-22.96,0-38.26,0,10.46-56.16,20.76-112.34,30.91-168.56Z"/>
            <path class="cls-7" d="M769.32,303.75c1.01,0,2.12.42,3.33,1.24,1.21.83,2.33,1.82,3.35,2.97,1.02,1.15,1.89,2.36,2.6,3.64s1.07,2.36,1.09,3.25c.28,21.11.55,42.22.83,63.33-14.03-9.26-21.03-13.89-34.98-23.15-.07-7.5-.1-11.25-.17-18.75h-24.72c.21,34.5.41,69,.62,103.51,10.01,0,15.02,0,25.03,0-.12-13.93-.19-20.89-.31-34.82,14.04,9.34,21.08,14,35.19,23.34.23,17.6.34,26.4.57,44.01-28.34,0-56.68,0-85.02,0-1.03,0-2.16-.42-3.39-1.24-1.23-.83-2.36-1.82-3.39-2.97-1.03-1.15-1.9-2.36-2.61-3.64-.71-1.27-1.07-2.36-1.07-3.25-.1-52.49-.19-104.97-.29-157.46,27.78,0,55.56,0,83.34,0Z"/>
            <path class="cls-7" d="M871.43,351.96c-.15-6.28-.23-9.41-.38-15.69h-8.75c1.04,45.34,2.07,90.69,3.11,136.03-14.14,0-21.22,0-35.36,0-.85-45.34-1.7-90.69-2.55-136.03h-16.35c-10.94-13.01-16.39-19.52-27.25-32.53,40.34,0,80.69,0,121.03,0,.54,19.29.81,28.93,1.35,48.21h-34.86Z"/>
          </g>
        </g>
        <g>
          <path class="cls-7" d="M515.8,381.04c.33-17.91.49-26.86.82-44.77h-27.19c-.44,20.51-.67,30.76-1.11,51.27-3.44,3.21-5.16,4.82-8.6,8.04,3.19,8.19,4.78,12.28,7.98,20.47-.41,18.75-.81,37.5-1.22,56.25-14.15,0-21.22,0-35.36,0,1.25-48.34,2.49-96.68,3.74-145.02-7.36-9.41-11.02-14.12-18.33-23.53,35.04,0,70.08,0,105.12,0,1.01,0,2.11.42,3.3,1.24,1.19.83,2.28,1.82,3.27,2.97.99,1.15,1.83,2.36,2.51,3.64.68,1.27,1.01,2.36,1,3.25-.41,28.89-.82,57.78-1.23,86.67-16.03,10.75-32.09,21.46-48.16,32.15-5.42-13.78-8.12-20.66-13.49-34.44,10.81-7.27,16.2-10.91,26.96-18.18Z"/>
          <path class="cls-5" d="M455.2,468.32l3.67-142.37-.88-1.13c-5.48-7.02-8.92-11.42-13.34-17.1h96.99s.32.04,1.02.53c.91.64,1.77,1.41,2.54,2.31.79.91,1.46,1.88,2,2.9.5.94.53,1.35.53,1.35l-1.21,84.55c-14.09,9.44-28.19,18.86-42.31,28.25-3.92-9.98-6.48-16.51-10.53-26.88,9.12-6.14,14.48-9.75,24.33-16.4l1.71-1.16.94-50.89h-35.14l-1.16,53.49-9.34,8.73.98,2.51c3.09,7.94,4.68,12.03,7.7,19.74l-1.12,51.56h-27.39Z"/>
          <path class="cls-7" d="M585.22,303.75c19.13,0,38.26,0,57.39,0,9.38,56.21,18.91,112.4,28.61,168.56-15.3,0-22.96,0-38.26,0-1.29-6.51-1.93-9.76-3.21-16.26-14.89-16.22-22.3-24.34-37.04-40.56,12.75,0,19.12,0,31.86,0-3.27-21.3-6.51-42.6-9.75-63.9-.52-1.91-.78-2.87-1.3-4.78-3.38,20.79-6.78,41.59-10.21,62.37h-25.7c8.71,9.95,13.08,14.92,21.85,24.87-2.74,15.31-4.12,22.96-6.89,38.27-15.3,0-22.96,0-38.26,0,10.46-56.16,20.76-112.34,30.91-168.56Z"/>
          <path class="cls-4" d="M636.23,468.32l-2.79-14.15-.76-.83c-12.7-13.84-19.96-21.78-30.98-33.89h27.5l-.7-4.58c-3.27-21.29-6.51-42.59-9.75-63.89l-.03-.23-1.36-5-7.77.41c-3.2,19.68-6.42,39.36-9.66,59.03h-29.16c5.98-32.54,11.92-65.13,17.76-97.46h50.69c8.89,53.29,18.06,107.28,27.26,160.6h-30.26ZM559.1,468.32c3.79-20.36,7.58-40.82,11.35-61.3l4.18,4.77c8.29,9.46,12.65,14.43,20.59,23.44-2.33,12.99-3.68,20.49-5.96,33.1h-30.15Z"/>
          <path class="cls-7" d="M769.32,303.75c1.01,0,2.12.42,3.33,1.24,1.21.83,2.33,1.82,3.35,2.97,1.02,1.15,1.89,2.36,2.6,3.64s1.07,2.36,1.09,3.25c.28,21.11.55,42.22.83,63.33-14.03-9.26-21.03-13.89-34.98-23.15-.07-7.5-.1-11.25-.17-18.75h-24.72c.21,34.5.41,69,.62,103.51,10.01,0,15.02,0,25.03,0-.12-13.93-.19-20.89-.31-34.82,14.04,9.34,21.08,14,35.19,23.34.23,17.6.34,26.4.57,44.01-28.34,0-56.68,0-85.02,0-1.03,0-2.16-.42-3.39-1.24-1.23-.83-2.36-1.82-3.39-2.97-1.03-1.15-1.9-2.36-2.61-3.64-.71-1.27-1.07-2.36-1.07-3.25-.1-52.49-.19-104.97-.29-157.46,27.78,0,55.56,0,83.34,0Z"/>
          <path class="cls-3" d="M696.73,468.32c-.1,0-.49-.11-1.15-.56-.95-.64-1.85-1.43-2.67-2.34-.82-.91-1.52-1.89-2.09-2.91-.52-.94-.57-1.35-.57-1.35l-.28-153.44h79.35s.34.04,1.08.55c.95.65,1.83,1.43,2.63,2.33.83.93,1.53,1.91,2.1,2.92.54.97.59,1.39.59,1.4l.73,55.79c-9.66-6.38-16.29-10.77-26.95-17.84l-.18-20.58h-32.67l.66,111.46h33l-.28-31.33c9.71,6.45,16.39,10.88,27.19,18.03l.5,37.87h-80.99Z"/>
          <path class="cls-7" d="M871.43,351.96c-.15-6.28-.23-9.41-.38-15.69h-8.75c1.04,45.34,2.07,90.69,3.11,136.03-14.14,0-21.22,0-35.36,0-.85-45.34-1.7-90.69-2.55-136.03h-16.35c-10.94-13.01-16.39-19.52-27.25-32.53,40.34,0,80.69,0,121.03,0,.54,19.29.81,28.93,1.35,48.21h-34.86Z"/>
          <path class="cls-2" d="M833.96,468.32l-2.55-136.03h-18.4c-8.24-9.8-13.37-15.92-20.6-24.57h108.66l1.13,40.26h-26.88l-.38-15.69h-16.7l3.11,136.03h-27.39Z"/>
        </g>
      </g>
    </g>
  </g>
</svg>